<svg width="260" height="260" viewBox="0 0 260 260" fill="none" xmlns="http://www.w3.org/2000/svg">
<path d="M0 130C0 58.203 58.203 0 130 0V0C201.797 0 260 58.203 260 130V130C260 201.797 201.797 260 130 260V260C58.203 260 0 201.797 0 130V130Z" fill="url(#paint0_linear_279_87)"/>
<path d="M64.1625 63.3368H184.907V150.47L195.448 161.127H232.807L195.448 198.135H64.1625V100.345H27.1543L64.1625 63.3368Z" fill="white"/>
<path fill-rule="evenodd" clip-rule="evenodd" d="M64.1548 57.5554H189.267V147.87L198.033 156.6H243.782L198.498 201.884L59.5103 202V105.001H16.4639L64.1548 57.5554ZM67.9869 67.0768H97.3918V163.915H143.344L171.735 192.479H68.9158V95.5245H39.4231L67.9869 67.0768ZM103.381 67.0768H179.78V143.015H170.979L194.101 166.121H220.908L194.55 192.479H180.036L131.965 144.408V158.06H103.381V67.0768ZM151.356 95.6405H132.081V114.567H151.356V95.6405Z" fill="black"/>
<path d="M130 254C61.5167 254 6 198.483 6 130H-6C-6 205.111 54.8893 266 130 266V254ZM254 130C254 198.483 198.483 254 130 254V266C205.111 266 266 205.111 266 130H254ZM130 6C198.483 6 254 61.5167 254 130H266C266 54.8893 205.111 -6 130 -6V6ZM130 -6C54.8893 -6 -6 54.8893 -6 130H6C6 61.5167 61.5167 6 130 6V-6Z" fill="black"/>
<defs>
<linearGradient id="paint0_linear_279_87" x1="260" y1="260" x2="0" y2="0" gradientUnits="userSpaceOnUse">
<stop/>
<stop offset="1" stop-color="#0086FF"/>
</linearGradient>
</defs>
</svg>
