<svg width="50" height="50" viewBox="0 0 50 50" fill="none" xmlns="http://www.w3.org/2000/svg">
<path fill-rule="evenodd" clip-rule="evenodd" d="M50 25C50 38.8071 38.8071 50 25 50C11.1929 50 0 38.8071 0 25C0 11.1929 11.1929 0 25 0C38.8071 0 50 11.1929 50 25ZM35.5322 5L36.5838 5.60718L26.2765 23.46C27.0836 23.8547 27.6393 24.6838 27.6393 25.6428C27.6393 26.5417 27.151 27.3265 26.4252 27.7465V39H23.9966V27.7465C23.2706 27.3267 22.7822 26.5417 22.7822 25.6428C22.7822 24.3687 23.7635 23.3236 25.0116 23.2223L35.5322 5ZM25.5 3.5V0.5H24.5V3.5H25.5ZM1 24H4V25H1V24ZM46 24H49V25H46V24ZM25.5 45.5V48.5H24.5V45.5H25.5Z" fill="white"/>
</svg>
