<svg width="65" height="63" viewBox="0 0 65 63" fill="none" xmlns="http://www.w3.org/2000/svg">
<path d="M11.9642 11.4737L11.7713 12.6915L11.9642 11.4737ZM7.89315 37.1774L8.08603 35.9595L7.89315 37.1774ZM11.8178 37.799L13.0356 37.9919L13.2284 36.774L12.0107 36.5812L11.8178 37.799ZM10.4491 46.4406L9.23128 46.2477L8.83172 48.7704L11.0556 47.5142L10.4491 46.4406ZM22.6961 39.5219L22.889 38.3041L22.4642 38.2369L22.0897 38.4484L22.6961 39.5219ZM48.84 17.3142L49.0329 16.0964L48.84 17.3142ZM7.07554 16.1032C7.43013 13.8644 9.53252 12.3369 11.7713 12.6915L12.1571 10.2559C8.57312 9.68821 5.20756 12.1335 4.63992 15.7175L7.07554 16.1032ZM4.67433 31.2638L7.07554 16.1032L4.63992 15.7175L2.23871 30.878L4.67433 31.2638ZM8.08603 35.9595C5.84722 35.605 4.31974 33.5025 4.67433 31.2638L2.23871 30.878C1.67106 34.4619 4.11629 37.8275 7.70027 38.3951L8.08603 35.9595ZM12.0107 36.5812L8.08603 35.9595L7.70027 38.3951L11.6249 39.0168L12.0107 36.5812ZM11.6669 46.6335L13.0356 37.9919L10.6 37.606L9.23128 46.2477L11.6669 46.6335ZM22.0897 38.4484L9.84262 45.3672L11.0556 47.5142L23.3026 40.5954L22.0897 38.4484ZM44.9618 41.8001L22.889 38.3041L22.5032 40.7398L44.576 44.2357L44.9618 41.8001ZM49.6576 38.3884C49.3031 40.6272 47.2006 42.1547 44.9618 41.8001L44.576 44.2357C48.16 44.8034 51.5256 42.3581 52.0932 38.7742L49.6576 38.3884ZM52.0588 23.2278L49.6576 38.3884L52.0932 38.7742L54.4945 23.6136L52.0588 23.2278ZM48.6472 18.5321C50.8859 18.8866 52.4134 20.989 52.0588 23.2278L54.4945 23.6136C55.0621 20.0296 52.6169 16.6641 49.0329 16.0964L48.6472 18.5321ZM11.7713 12.6915L48.6472 18.5321L49.0329 16.0964L12.1571 10.2559L11.7713 12.6915Z" fill="white"/>
<path fill-rule="evenodd" clip-rule="evenodd" d="M11.4566 37.8274C11.5272 38.1077 11.607 38.3849 11.6958 38.6585L11.8183 37.8847L11.4566 37.8274ZM13.2747 44.9304L22.6966 39.6076L44.7694 43.1036C47.6808 43.5648 50.4148 41.5784 50.876 38.667L53.2772 23.5064C53.4337 22.518 53.3082 21.5501 52.9601 20.6845L53.3863 19.0697L58.8771 28.554C59.6908 29.6622 60.0787 31.0825 59.8467 32.5479L57.4455 47.7085C56.9843 50.6198 54.2503 52.6062 51.3389 52.145L29.2662 48.6491L17.019 55.5678L17.0202 55.5602L17.0016 55.5875L8.83984 48.8493L13.2747 44.9304Z" fill="white"/>
<path d="M21.938 22.789C22.0294 22.2113 22.5719 21.8172 23.1496 21.9086L25.2415 22.24C25.8193 22.3315 26.2133 22.8739 26.1218 23.4516L25.2935 28.6815C25.202 29.2592 24.6596 29.6533 24.0819 29.5619L21.99 29.2306C21.4123 29.139 21.0181 28.5965 21.1096 28.0189L21.938 22.789Z" fill="white"/>
<path d="M37.4256 26.0436C37.7728 26.2556 37.9444 26.6583 37.8807 27.0602L37.5857 28.9226C37.4637 29.6933 36.5676 30.0854 35.8757 29.7248C35.2353 29.3912 34.4808 29.0643 33.827 28.9608C33.1732 28.8573 32.3545 28.9349 31.6424 29.0544C30.8729 29.1834 30.1418 28.5336 30.2639 27.7629L30.5589 25.9005C30.6225 25.4985 30.91 25.1686 31.3059 25.0743C32.1066 24.8835 33.4906 24.6187 34.4896 24.7769C35.4886 24.935 36.723 25.6146 37.4256 26.0436Z" fill="white"/>
<path d="M57.291 8.86039C57.6408 8.33919 58.3794 8.26718 58.8233 8.71102L59.9516 9.83934C60.3877 10.2754 60.3271 10.9988 59.8246 11.3562L53.7715 15.6616C53.5933 15.7884 53.3496 15.7679 53.1949 15.6132C53.0434 15.4618 53.0204 15.2244 53.1396 15.0466L57.291 8.86039Z" fill="white"/>
<path d="M48.5183 9.02781C48.3611 8.3988 48.8368 7.78949 49.4852 7.78949H50.9624C51.5969 7.78949 52.0699 8.37451 51.9369 8.99491L50.7799 14.3939C50.7335 14.6108 50.5418 14.7657 50.3201 14.7657C50.1043 14.7657 49.9161 14.6188 49.8638 14.4095L48.5183 9.02781Z" fill="white"/>
<path d="M60.9314 15.7822C61.5604 15.6251 62.1698 16.1007 62.1698 16.7491V18.2264C62.1698 18.8609 61.5846 19.3337 60.9643 19.2009L55.5653 18.0439C55.3484 17.9974 55.1935 17.8057 55.1935 17.584C55.1935 17.3681 55.3404 17.1801 55.5497 17.1277L60.9314 15.7822Z" fill="white"/>
</svg>
