<svg width="180" height="43" viewBox="0 0 180 43" fill="none" xmlns="http://www.w3.org/2000/svg">
<path fill-rule="evenodd" clip-rule="evenodd" d="M1.93966 31V0.905948H10.1097V24.4169H22.0999L22.0915 24.4022C20.7984 22.1001 20.1518 19.2837 20.1518 15.953C20.1518 12.6027 20.7984 9.78134 22.0915 7.48902C23.3944 5.1869 25.1479 3.44807 27.3521 2.27252C29.566 1.08718 32.0445 0.494507 34.7874 0.494507C37.5108 0.494507 39.9794 1.08718 42.1934 2.27252C44.4073 3.44807 46.1658 5.1869 47.4687 7.48902C48.2141 8.8005 48.7462 10.2851 49.0652 11.9429V0.905948H62.055C64.2886 0.905948 66.2429 1.31249 67.9181 2.12558C69.5932 2.93867 70.8961 4.10932 71.8268 5.63753C72.1197 6.11865 72.3666 6.62986 72.5674 7.17117V0.905948H94.1703H94.2562H104.339L111.333 17.9514H111.686L118.68 0.905948H128.849V19.1618L140.456 0.905948H143.16H146.216H150.801V19.9498H153.264L165.373 0.905948H168.076H171.133H175.717V19.9498H179.185V26.2978H175.717V31H167.9V26.2978H154.269H153.264H150.801V31H142.983V26.2978H128.849V31H120.855V13.6019H120.62L113.919 30.7649H109.1L102.399 13.4843H102.164V31H94.1975H94.1703H74.2219H72.5674H65.3465L60.0628 21.0666H57.2353V31H49.0652V19.9657C48.7462 21.6259 48.2141 23.1145 47.4687 24.4316C46.1658 26.7239 44.4073 28.4628 42.1934 29.6481C39.9794 30.8237 37.5108 31.4114 34.7874 31.4114C32.0445 31.4114 29.566 30.8188 27.3521 29.6334C25.2507 28.494 23.5589 26.8559 22.2766 24.7192V31H1.93966ZM71.7827 16.5848C72.0951 16.1035 72.3566 15.5864 72.5674 15.0335V27.9623L68.1104 19.7796C69.6716 19.0305 70.8957 17.9656 71.7827 16.5848ZM80.7374 7.48902H94.1703V24.4169H80.7374V19.2445H93.1395V12.6614H80.7374V7.48902ZM142.925 9.3699H143.16V19.9498H136.4V19.7147L142.925 9.3699ZM167.841 9.3699H168.076V19.9498H161.317V19.7147L167.841 9.3699ZM60.1154 14.7186H57.2353V7.43024H60.1154C61.0754 7.43024 61.8934 7.56249 62.5693 7.82699C63.2551 8.08169 63.7791 8.48334 64.1416 9.03193C64.5139 9.57072 64.7 10.2712 64.7 11.1332C64.7 11.9855 64.5139 12.6761 64.1416 13.2051C63.7791 13.7341 63.2551 14.1211 62.5693 14.366C61.8934 14.6011 61.0754 14.7186 60.1154 14.7186ZM0 35H90V43H0V35ZM36.109 14.9767L37.9787 8.5L31.2706 15.4713L33.6357 16.8368L31.766 23.3135L38.4741 16.3422L36.109 14.9767Z" fill="white"/>
</svg>
