<svg width="54" height="44" viewBox="0 0 54 44" fill="none" xmlns="http://www.w3.org/2000/svg">
<path fill-rule="evenodd" clip-rule="evenodd" d="M27 0H18.6923L9 11V22V44H45V0H27ZM41 15H14V17H41V15ZM41 19H14V21H41V19ZM14 23H41V25H14V23ZM34 27H14V29H34V27ZM14 31H34V33H14V31Z" fill="white"/>
<path fill-rule="evenodd" clip-rule="evenodd" d="M53.7825 21.832L52.832 22.7825L52.8319 22.7823L50.9505 24.6637L50 23.7132L51.8814 21.8318L50 19.9505L50.9505 19L53.7825 21.832Z" fill="white"/>
<path fill-rule="evenodd" clip-rule="evenodd" d="M-3.00407e-05 21.832L0.950443 22.7825L0.950614 22.7823L2.832 24.6637L3.78247 23.7132L1.90109 21.8318L3.78245 19.9505L2.83197 19L-3.00407e-05 21.832Z" fill="white"/>
</svg>
