<svg width="50" height="48" viewBox="0 0 50 48" fill="none" xmlns="http://www.w3.org/2000/svg">
<path fill-rule="evenodd" clip-rule="evenodd" d="M17.7166 5.49884e-06C14.5146 0.00506217 11.9261 3.4964 11.935 7.79812C11.9439 12.0998 14.5469 15.583 17.7489 15.5779C20.9509 15.5729 23.5394 12.0815 23.5305 7.77981C23.5215 3.47808 20.9186 -0.00505117 17.7166 5.49884e-06ZM32.7373 6.17563e-06C35.9393 0.00506292 38.5278 3.4964 38.5189 7.79812C38.51 12.0998 35.907 15.583 32.705 15.5779C29.503 15.5729 26.9145 12.0815 26.9234 7.77981C26.9324 3.47808 29.5353 -0.00505057 32.7373 6.17563e-06ZM1.23512 24.23C-0.825036 20.6999 -0.248782 16.5445 2.52222 14.9485C5.29322 13.3525 9.20965 14.9204 11.2698 18.4505C13.33 21.9806 12.7537 26.136 9.98271 27.732C7.21171 29.328 3.29528 27.7601 1.23512 24.23ZM47.4777 14.9485C50.2487 16.5445 50.825 20.6999 48.7648 24.23C46.7047 27.7601 42.7882 29.328 40.0173 27.732C37.2462 26.136 36.67 21.9806 38.7302 18.4505C40.7903 14.9204 44.7067 13.3525 47.4777 14.9485ZM20.466 46.2673C18.9197 47.0378 17.0938 47.483 15.1379 47.483C9.56429 47.483 5.04601 43.8683 5.04601 39.4095C5.04601 36.3736 7.14052 33.7292 10.2366 32.3504C11.4121 31.4345 13.8333 29.4906 14.4945 28.5186C15.4769 27.0747 16.6416 24.8417 17.3915 23.3391C18.2608 19.8181 21.4404 17.2073 25.2299 17.2073C28.9233 17.2073 32.0375 19.6874 32.9978 23.073C33.808 24.5676 35.1712 26.989 36.293 28.5186C37.0352 29.5308 38.9891 31.5108 40.247 32.7548C42.7581 34.2106 44.4043 36.6481 44.4043 39.4095C44.4043 43.8683 40.112 47.483 34.8171 47.483C33.0531 47.483 31.4005 47.0818 29.9807 46.3819C29.1598 46.1332 26.8064 45.4645 25.2299 45.4645C23.8564 45.4645 21.6393 45.9721 20.466 46.2673Z" fill="white"/>
</svg>
