<svg width="48" height="54" viewBox="0 0 48 54" fill="none" xmlns="http://www.w3.org/2000/svg">
<path fill-rule="evenodd" clip-rule="evenodd" d="M47.5357 4.82067L40.8722 0.973516L25.0027 28.4603L31.6662 32.3074L47.5357 4.82067ZM20.9013 43.2175C21.1771 43.2061 21.3916 42.9733 21.3803 42.6974C21.3802 42.6948 21.3801 42.6922 21.3799 42.6895L23.6736 41.0198L21.4541 39.7383L21.1806 42.3177C21.0916 42.251 20.98 42.2134 20.8603 42.2183L20.8773 42.635C20.8602 42.2183 20.8602 42.2183 20.8601 42.2183L20.8599 42.2183L20.8592 42.2183L20.8572 42.2184L20.8502 42.2187L20.8246 42.22C20.8026 42.2211 20.7707 42.2228 20.7297 42.2252C20.6478 42.2301 20.5296 42.2381 20.3817 42.2503C20.0861 42.2746 19.6706 42.3161 19.1883 42.3849C18.2301 42.5214 16.9816 42.769 15.8831 43.2166C13.7132 44.1008 13.2165 46.0463 12.8092 47.7536L12.7848 47.8558C12.3704 49.5946 12.0167 51.0787 10.5393 51.8986C8.96613 52.7716 6.58497 52.7789 4.49994 52.5244C3.47482 52.3993 2.55349 52.2153 1.88812 52.0624C1.55581 51.9861 1.28829 51.9177 1.1047 51.8687C1.01293 51.8441 0.942193 51.8245 0.894892 51.8111L0.84184 51.7959L0.82907 51.7922L0.826226 51.7913L0.825779 51.7912L0.8257 51.7912L0.825664 51.7912C0.561025 51.7125 0.282685 51.8632 0.203935 52.1278C0.125173 52.3925 0.275885 52.6709 0.540557 52.7496L0.683166 52.2704C0.540557 52.7496 0.540678 52.7497 0.540821 52.7497L0.541243 52.7498L0.542535 52.7502L0.54693 52.7515L0.562862 52.7562L0.622499 52.7733C0.674298 52.7879 0.749809 52.8089 0.846615 52.8348C1.04018 52.8865 1.31915 52.9578 1.66419 53.037C2.35351 53.1954 3.31027 53.3866 4.37878 53.517C6.48101 53.7736 9.14924 53.8136 11.0245 52.7729C12.8954 51.7348 13.3433 49.84 13.7284 48.2112C13.7463 48.1354 13.7641 48.0602 13.7819 47.9857C14.1998 46.2341 14.6161 44.8127 16.2604 44.1427C17.2489 43.7399 18.4049 43.5066 19.3294 43.3749C19.7885 43.3094 20.1839 43.27 20.4639 43.2469C20.6037 43.2353 20.7145 43.2279 20.7896 43.2234C20.8271 43.2212 20.8558 43.2197 20.8746 43.2187L20.8955 43.2177L20.9003 43.2175L20.9012 43.2175L20.9012 43.2175L20.9013 43.2175ZM24.5218 29.2932L31.1853 33.1403L29.7426 35.6391L23.0791 31.792L24.5218 29.2932ZM24.5244 40.4004L21.5651 38.6918L22.2032 32.6745L29.4166 36.8391L24.5244 40.4004Z" fill="white"/>
</svg>
