<svg width="50" height="50" viewBox="0 0 50 50" fill="none" xmlns="http://www.w3.org/2000/svg">
<path fill-rule="evenodd" clip-rule="evenodd" d="M5.55556 5.55556H44.4444V44.4444H5.55556V5.55556ZM0 0H5.55556H44.4444H50V5.55556V44.4444V50H44.4444H5.55556H0V44.4444V5.55556V0ZM23.1648 31.7081L35.5097 19.3633L35.5097 19.3633L32.803 16.6566L32.803 16.6566L31.1789 15.0326L23.1648 23.0467L20.352 25.8596L16.5625 22.0701L16.5625 22.0702L14.9385 20.4461L10.6077 24.7769L20.3519 34.521L20.3521 34.5208L20.3521 34.5209L23.1648 31.7081ZM22.1827 22.0646L19.3754 19.2573L17.5446 21.088L20.352 23.8954L22.1827 22.0646ZM24.1476 32.691L24.7888 33.3322L24.789 33.332L24.789 33.332L39.9466 18.1745L35.6158 13.8437L33.7851 15.6745L37.4739 19.3633L24.1476 32.691Z" fill="white"/>
</svg>
